<?xml version="1.0" encoding="utf-8"?>
<!-- Generator: Adobe Illustrator 23.0.0, SVG Export Plug-In . SVG Version: 6.00 Build 0)  -->
<svg version="1.1" xmlns="http://www.w3.org/2000/svg" xmlns:xlink="http://www.w3.org/1999/xlink" x="0px" y="0px"
	 viewBox="0 0 100 100" style="enable-background:new 0 0 100 100;" xml:space="preserve">
<style type="text/css">
	.st0{display:none;}
	.st1{display:inline;fill:#040000;}
	.st2{fill:#9BD4CF;}
	.st3{display:inline;}
	.st4{fill:#FFFFFF;}
	.st5{display:inline;fill:#A5A5A5;}
	.st6{fill:#43B89F;}
</style>
<g id="레이어_5" class="st0">
	<rect x="0" class="st1" width="100" height="100"/>
</g>
<g id="레이어_2">
	<g>
		<g>
			<path class="st2" d="M50,0C22.4,0,0,22.4,0,50c0,9.1,2.4,17.6,6.7,25l13.7-23.7L50,0z"/>
		</g>
		<g>
			<path class="st2" d="M50,0C50,0,50,0,50,0l43.3,75c4.3-7.4,6.7-15.9,6.7-25C100,22.4,77.6,0,50,0z"/>
		</g>
		<g>
			<path class="st2" d="M25,75C25,75,25,75,25,75c0-13.3,10.3-24.1,23.4-25C30.6,50.6,15.1,60.5,6.7,75c8.6,14.9,24.8,25,43.3,25
				C36.2,100,25,88.8,25,75z"/>
		</g>
		<g>
			<path class="st2" d="M51.6,50.1C64.7,50.9,75,61.7,75,75c0,0,0,0,0,0c0,13.8-11.2,25-25,25c18.5,0,34.6-10.1,43.3-25
				C84.9,60.5,69.4,50.6,51.6,50.1z"/>
		</g>
	</g>
	<g class="st0">
		<g class="st3">
			<path class="st4" d="M93.3,75L50,0l0,0l0,0L20.4,51.2L6.7,75l0,0h0c8.4-14.5,23.9-24.4,41.7-25c0.5,0,1.1-0.1,1.6-0.1
				s1.1,0,1.6,0.1C69.4,50.6,84.9,60.5,93.3,75L93.3,75L93.3,75z"/>
		</g>
		<g class="st3">
			<path class="st4" d="M51.6,50.1C51.1,50,50.5,50,50,50s-1.1,0-1.6,0.1C35.3,50.9,25,61.7,25,75c0,0,0,0,0,0c0,13.8,11.2,25,25,25
				s25-11.2,25-25c0,0,0,0,0,0C75,61.7,64.7,50.9,51.6,50.1z"/>
		</g>
	</g>
</g>
<g id="레이어_4" class="st0">
	<g>
		<path class="st3" d="M50,0C22.4,0,0,22.4,0,50c0,9.1,2.4,17.6,6.7,25l13.7-23.7L50,0z"/>
		<path class="st3" d="M100,50c0-27.6-22.4-50-50-50c0,0,0,0,0,0l43.3,75C97.6,67.6,100,59.1,100,50z"/>
		<path class="st1" d="M93.3,75L50,0l0,0l0,0L6.7,75l0,0h0c8.6,14.9,24.8,25,43.3,25S84.6,89.9,93.3,75L93.3,75L93.3,75z"/>
		<path class="st5" d="M100,50c0-27.6-22.4-50-50-50c0,0,0,0,0,0l0,0l0,0C22.4,0,0,22.4,0,50c0,9.1,2.4,17.6,6.7,25l0,0h0h86.6h0
			l0,0C97.6,67.6,100,59.1,100,50z"/>
	</g>
	<g class="st3">
		<path class="st6" d="M100,50c0-27.6-22.4-50-50-50c0,0,0,0,0,0l0,0l0,0C22.4,0,0,22.4,0,50c0,9.1,2.4,17.6,6.7,25l0,0h0h86.6h0
			l0,0C97.6,67.6,100,59.1,100,50z"/>
	</g>
	<g class="st3">
		<polygon class="st4" points="93.3,75 50,0 50,0 50,0 20.4,51.2 6.7,75 6.7,75 6.7,75 93.3,75 93.3,75 		"/>
	</g>
	<g id="눈_1_" class="st3">
		<ellipse class="st6" cx="50" cy="75" rx="43.3" ry="25"/>
	</g>
	<g class="st3">
		<circle class="st4" cx="50" cy="75" r="25"/>
	</g>
</g>
<g id="레이어_3" class="st0">
	<line class="st1" x1="50" y1="75" x2="32.3" y2="57.3"/>
</g>
</svg>
