<?xml version="1.0" encoding="iso-8859-1"?>
<!-- Generator: Adobe Illustrator 19.0.0, SVG Export Plug-In . SVG Version: 6.00 Build 0)  -->
<svg version="1.1" id="Layer_1" xmlns="http://www.w3.org/2000/svg" xmlns:xlink="http://www.w3.org/1999/xlink" x="0px" y="0px"
	 viewBox="0 0 512.001 512.001" style="enable-background:new 0 0 512.001 512.001;" xml:space="preserve">
<g>
	<g>
		<g>
			<path d="M272.977,260.858c6.869-2.649,11.873-8.93,11.873-19.92c0-15.995-10.695-21-24.139-21h-20.313
				c-2.847,0-4.713,2.158-4.713,4.612v62.41c0,3.142,3.83,4.71,7.656,4.71c3.827,0,7.654-1.568,7.654-4.71v-23.649h6.476
				l13.444,26.103c1.08,2.059,2.943,2.844,4.906,2.844c4.514,0,9.615-4.122,9.615-7.947c0-0.492-0.098-1.178-0.488-1.768
				L272.977,260.858z M260.711,251.536h-9.715v-18.252h9.715c5.494,0,8.832,2.256,8.832,9.125
				C269.543,249.279,266.205,251.536,260.711,251.536z"/>
			<path d="M199.218,219.938h-20.313c-3.435,0-5.69,2.158-5.69,4.612v62.41c0,3.142,3.826,4.71,7.653,4.71
				c3.827,0,7.653-1.568,7.653-4.71v-21.195h9.715c13.542,0,24.141-6.281,24.141-22.766v-0.493
				C222.377,226.023,212.172,219.938,199.218,219.938z M207.068,244.175c0,6.673-3.336,9.814-8.832,9.814h-9.715v-20.705h9.715
				c5.496,0,8.832,3.139,8.832,9.813V244.175z"/>
			<path d="M431.741,238.19c0-3.04,2.847-5.888,9.813-5.888c8.049,0,9.912,3.731,13.444,3.731c4.316,0,6.083-5.399,6.083-8.048
				c0-7.654-14.327-8.634-19.527-8.634c-12.264,0-25.12,5.593-25.12,20.313c0,22.961,31.107,20.902,31.107,32.774
				c0,4.71-5.004,6.476-9.519,6.476c-9.127,0-12.07-7.261-16.681-7.261c-3.729,0-6.673,4.907-6.673,8.244
				c0,6.478,10.795,12.756,23.647,12.756c14.229,0,24.535-7.653,24.535-21.783C462.85,246.138,431.741,248.004,431.741,238.19z"/>
			<path d="M142.634,255.756l16.288-26.102c0.688-1.079,0.982-2.062,0.982-3.042c0-4.122-5.592-7.261-9.912-7.261
				c-2.158,0-3.629,0.785-4.611,2.551l-13.052,22.767l-13.05-22.767c-0.982-1.766-2.453-2.551-4.613-2.551
				c-4.316,0-9.91,3.139-9.91,7.261c0,0.98,0.295,1.963,0.982,3.042l16.288,26.102l-16.976,26.2
				c-0.588,0.98-0.883,1.864-0.883,2.747c0,4.22,5.984,7.556,10.205,7.556c1.57,0,2.943-0.49,3.629-1.57l14.327-24.335
				l14.327,24.335c0.59,1.08,2.061,1.57,3.631,1.57c4.221,0,10.205-3.336,10.205-7.556c0-0.883-0.295-1.766-0.883-2.747
				L142.634,255.756z"/>
			<path d="M90.758,233.285L90.758,233.285c2.946-0.001,4.612-3.14,4.612-6.772c0-3.141-1.373-6.575-4.612-6.575H55.825
				c-3.337,0-6.673,1.57-6.673,4.71v62.313c0,3.142,3.336,4.71,6.673,4.71h34.933c3.239,0,4.612-3.434,4.612-6.573
				c0-3.634-1.666-6.771-4.612-6.771H64.46v-16.683h14.72c3.238,0,4.612-3.141,4.612-5.79c0-3.142-1.669-5.985-4.612-5.985H64.46
				v-16.584H90.758z"/>
			<path d="M372.802,238.19c0-3.04,2.845-5.888,9.813-5.888c8.046,0,9.91,3.731,13.444,3.731c4.316,0,6.083-5.399,6.083-8.048
				c0-7.654-14.327-8.634-19.527-8.634c-12.267,0-25.12,5.593-25.12,20.313c0,22.961,31.105,20.902,31.105,32.774
				c0,4.71-5.005,6.476-9.518,6.476c-9.127,0-12.07-7.261-16.683-7.261c-3.73,0-6.671,4.907-6.671,8.244
				c0,6.478,10.793,12.756,23.647,12.756c14.229,0,24.532-7.653,24.532-21.783C403.907,246.138,372.802,248.004,372.802,238.19z"/>
			<path d="M341.238,233.285L341.238,233.285c2.943-0.001,4.612-3.14,4.612-6.772c0-3.141-1.373-6.575-4.612-6.575h-34.933
				c-3.337,0-6.673,1.57-6.673,4.71v62.313c0,3.142,3.336,4.71,6.673,4.71h34.933c3.239,0,4.612-3.434,4.612-6.573
				c0-3.634-1.669-6.771-4.612-6.771H314.94v-16.683h14.72c3.238,0,4.612-3.141,4.612-5.79c0-3.142-1.669-5.985-4.612-5.985h-14.72
				v-16.584H341.238z"/>
			<path d="M486.873,160.868h-15.926c-17.711-40.001-46.087-74.124-82.408-98.976C349.414,35.123,303.583,20.973,256,20.973
				c-47.582,0-93.413,14.15-132.537,40.919c-36.322,24.852-64.697,58.975-82.409,98.976H25.129C11.273,160.868,0,172.14,0,185.996
				v140.006c0,13.856,11.273,25.129,25.129,25.129h15.923c17.712,40.002,46.089,74.125,82.409,98.977
				c39.125,26.77,84.956,40.92,132.539,40.92c47.584,0,93.416-14.15,132.541-40.92c36.321-24.852,64.697-58.975,82.409-98.977
				h15.923c13.855,0,25.128-11.273,25.128-25.129V185.996C512.001,172.14,500.728,160.868,486.873,160.868z M256,40.973
				c82.654,0,156.801,46.586,192.883,119.895h-70.488c-29.281-37.595-74.646-59.894-122.395-59.894
				c-47.748,0-93.112,22.299-122.392,59.894H109.09c32.072-49.664,86.935-79.895,146.91-79.895c21.404,0,42.399,3.869,62.4,11.5
				c5.16,1.968,10.94-0.619,12.908-5.779c1.969-5.16-0.619-10.939-5.779-12.908C303.243,65.284,279.85,60.973,256,60.973
				c-35.75,0-70.792,9.819-101.338,28.395c-28.789,17.509-52.502,42.147-68.903,71.5h-22.64C99.2,87.559,173.346,40.973,256,40.973z
				 M351.776,160.868h-191.55c25.167-25.265,59.688-39.894,95.773-39.894C292.086,120.974,326.607,135.603,351.776,160.868z
				 M256,471.028c-82.653,0-156.8-46.587-192.883-119.897h70.49C162.889,388.729,208.253,411.03,256,411.03
				c47.748,0,93.113-22.3,122.395-59.898h24.516c-32.07,49.664-86.935,79.895-146.91,79.895c-21.408,0-42.402-3.869-62.397-11.499
				c-5.158-1.968-10.938,0.617-12.908,5.777c-1.969,5.16,0.617,10.939,5.777,12.908c22.279,8.503,45.672,12.814,69.527,12.814
				c35.752,0,70.794-9.819,101.34-28.395c28.789-17.509,52.501-42.147,68.902-71.5h22.643
				C412.803,424.441,338.656,471.028,256,471.028z M160.223,351.132h191.555c-25.17,25.267-59.692,39.898-95.778,39.898
				C219.916,391.03,185.394,376.399,160.223,351.132z M492.001,326.002c0,2.78-2.349,5.129-5.128,5.129v0.001H25.129
				c-2.78,0-5.129-2.349-5.129-5.129V185.996c0-2.78,2.349-5.128,5.129-5.128c0.02,0,461.725,0,461.744,0
				c2.779,0,5.128,2.349,5.128,5.128V326.002z"/>
			<path d="M343.354,104.33l0.284,0.162c1.539,0.86,3.204,1.268,4.847,1.268c3.502,0,6.897-1.855,8.731-5.137
				c2.693-4.821,0.94-10.931-3.883-13.624c-0.01-0.005-0.104-0.06-0.113-0.065c-4.789-2.737-10.85-1.054-13.594,3.731
				C336.883,95.449,338.574,101.577,343.354,104.33z"/>
			<path d="M168.851,407.789c-0.169-0.101-0.335-0.196-0.509-0.294c-4.828-2.683-10.936-0.955-13.618,3.874
				c-2.683,4.828-0.962,10.904,3.865,13.586l0.044,0.026c1.602,0.952,3.361,1.405,5.1,1.405c3.411,0,6.736-1.747,8.605-4.892
				C175.16,416.747,173.598,410.611,168.851,407.789z"/>
		</g>
	</g>
</g>
<g>
</g>
<g>
</g>
<g>
</g>
<g>
</g>
<g>
</g>
<g>
</g>
<g>
</g>
<g>
</g>
<g>
</g>
<g>
</g>
<g>
</g>
<g>
</g>
<g>
</g>
<g>
</g>
<g>
</g>
</svg>
