<?xml version="1.0" encoding="iso-8859-1"?>
<!-- Generator: Adobe Illustrator 19.0.0, SVG Export Plug-In . SVG Version: 6.00 Build 0)  -->
<svg version="1.1" id="Capa_1" xmlns="http://www.w3.org/2000/svg" xmlns:xlink="http://www.w3.org/1999/xlink" x="0px" y="0px"
	 viewBox="0 0 480 480" style="enable-background:new 0 0 480 480;" xml:space="preserve">
<g>
	<g>
		<path d="M448,312.808V167.192c18.232-3.72,32-19.88,32-39.192c0-22.056-17.944-40-40-40c-13.448,0-25.312,6.72-32.56,16.928
			l-128.376-56.48C279.656,45.72,280,42.904,280,40c0-22.056-17.944-40-40-40c-22.056,0-40,17.944-40,40
			c0,2.904,0.344,5.72,0.936,8.448L72.56,104.928C65.312,94.72,53.448,88,40,88c-22.056,0-40,17.944-40,40
			c0,19.312,13.768,35.472,32,39.192v145.616C13.768,316.528,0,332.688,0,352c0,22.056,17.944,40,40,40
			c13.448,0,25.312-6.72,32.56-16.928l128.376,56.48C200.344,434.28,200,437.096,200,440c0,22.056,17.944,40,40,40
			c22.056,0,40-17.944,40-40c0-2.904-0.344-5.72-0.936-8.448l128.376-56.48C414.688,385.28,426.552,392,440,392
			c22.056,0,40-17.944,40-40C480,332.688,466.232,316.528,448,312.808z M418.064,118.352c0-0.008,0-0.008,0-0.016
			C421.792,109.912,430.208,104,440,104c13.232,0,24,10.768,24,24s-10.768,24-24,24c-8.928,0-16.64-4.96-20.776-12.208
			c-0.024-0.04-0.024-0.096-0.048-0.136c-1.016-1.808-1.76-3.656-2.288-5.52c-0.032-0.12-0.08-0.232-0.112-0.36
			c-0.504-1.912-0.776-3.84-0.776-5.776C416,124.696,416.696,121.456,418.064,118.352z M409.88,154.032
			c5.672,6.552,13.312,11.36,22.12,13.16v145.616c-2.208,0.448-4.304,1.168-6.36,1.968L345.656,190L409.88,154.032z M268.768,67.664
			c1.376-1.432,2.688-2.928,3.848-4.568l128.296,56.448c-0.016,0.056-0.016,0.12-0.032,0.176c-0.056,0.256-0.08,0.512-0.128,0.768
			C400.28,122.96,400,125.464,400,128c0,2.368,0.28,4.704,0.712,7.016c0.208,1.152,0.528,2.24,0.824,3.352
			c0.168,0.584,0.24,1.176,0.432,1.76l-64.96,36.376l-69.16-107.888C268.168,68.304,268.464,67.984,268.768,67.664z
			 M219.088,228.456c0.024-0.04,0.064-0.064,0.088-0.104c2.12-3.768,5.144-6.808,8.696-8.944c0.112-0.064,0.232-0.12,0.344-0.184
			c1.536-0.888,3.184-1.56,4.88-2.088c0.36-0.112,0.704-0.24,1.072-0.336c1.888-0.488,3.84-0.8,5.832-0.8s3.944,0.312,5.832,0.8
			c0.368,0.096,0.712,0.224,1.072,0.336c1.696,0.528,3.344,1.2,4.872,2.088c0.112,0.064,0.232,0.12,0.344,0.184
			c3.544,2.136,6.576,5.176,8.696,8.944c0.032,0.056,0.08,0.096,0.12,0.152C262.832,231.936,264,235.816,264,240
			c0,4.208-1.184,8.104-3.088,11.544c-0.024,0.04-0.072,0.064-0.088,0.104c-2.12,3.768-5.144,6.808-8.696,8.944
			c-0.112,0.064-0.232,0.12-0.344,0.192c-1.536,0.888-3.176,1.56-4.872,2.088c-0.36,0.112-0.712,0.24-1.072,0.336
			c-1.896,0.48-3.848,0.792-5.84,0.792s-3.944-0.312-5.832-0.8c-0.368-0.096-0.712-0.224-1.072-0.336
			c-1.696-0.528-3.336-1.2-4.872-2.08c-0.112-0.064-0.232-0.12-0.352-0.192c-3.544-2.136-6.576-5.176-8.688-8.944
			c-0.024-0.04-0.064-0.064-0.088-0.104C217.184,248.104,216,244.208,216,240S217.184,231.896,219.088,228.456z M212.784,210.856
			c-0.864,0.808-1.648,1.664-2.44,2.544c-0.168,0.184-0.352,0.344-0.512,0.536l-52.856-29.6L225.6,77.288
			c1.872,0.728,3.8,1.28,5.776,1.72c0.216,0.048,0.408,0.136,0.624,0.184v121.616c-0.128,0.024-0.248,0.08-0.376,0.104
			c-2.048,0.448-4.032,1.096-5.968,1.856c-0.664,0.256-1.328,0.504-1.984,0.792c-1.64,0.744-3.208,1.616-4.736,2.576
			c-0.832,0.52-1.64,1.064-2.432,1.648C215.208,208.736,213.96,209.752,212.784,210.856z M263.488,207.784
			c-0.792-0.584-1.6-1.12-2.432-1.648c-1.52-0.96-3.096-1.832-4.736-2.576c-0.648-0.296-1.312-0.536-1.984-0.792
			c-1.936-0.76-3.92-1.408-5.968-1.856c-0.128-0.024-0.248-0.08-0.376-0.104V79.192c0.216-0.04,0.408-0.136,0.624-0.184
			c1.976-0.44,3.904-0.992,5.768-1.72l68.624,107.048l-52.856,29.6c-0.152-0.184-0.336-0.352-0.504-0.536
			c-0.792-0.88-1.576-1.736-2.44-2.544C266.032,209.752,264.784,208.736,263.488,207.784z M240,16c13.232,0,24,10.768,24,24
			c0,3.432-0.752,6.68-2.048,9.632c0,0.008-0.008,0.008-0.008,0.016c-0.032,0.072-0.072,0.128-0.104,0.2
			c-0.488,1.08-1.056,2.12-1.688,3.112c-0.32,0.496-0.688,0.944-1.04,1.416c-0.488,0.648-1,1.288-1.552,1.88
			c-0.384,0.416-0.776,0.824-1.192,1.208c-0.688,0.64-1.416,1.232-2.176,1.792c-0.336,0.248-0.656,0.536-1.008,0.768
			c-0.064,0.04-0.144,0.072-0.208,0.112c-0.016,0.016-0.04,0.016-0.064,0.024c-1.696,1.088-3.512,1.896-5.384,2.512
			c-0.44,0.144-0.88,0.296-1.336,0.416c-0.832,0.224-1.68,0.408-2.528,0.536c-0.44,0.064-0.888,0.088-1.336,0.136
			c-1.544,0.152-3.096,0.152-4.64,0c-0.448-0.04-0.896-0.064-1.336-0.136c-0.848-0.128-1.696-0.32-2.528-0.536
			c-0.456-0.12-0.896-0.272-1.336-0.416c-1.872-0.616-3.688-1.424-5.384-2.512c-0.016-0.016-0.04-0.008-0.064-0.024
			c-0.064-0.04-0.144-0.072-0.208-0.112c-0.352-0.232-0.664-0.512-1.008-0.768c-0.76-0.56-1.488-1.152-2.176-1.792
			c-0.416-0.384-0.808-0.792-1.192-1.216c-0.552-0.592-1.056-1.224-1.552-1.872c-0.352-0.472-0.72-0.92-1.04-1.416
			c-0.648-1-1.216-2.048-1.712-3.144c-0.024-0.056-0.064-0.104-0.088-0.16c0-0.008-0.008-0.008-0.008-0.016
			C216.752,46.68,216,43.432,216,40C216,26.768,226.768,16,240,16z M78.464,138.376c0.304-1.112,0.624-2.208,0.824-3.352
			C79.72,132.704,80,130.368,80,128c0-2.536-0.28-5.04-0.76-7.512c-0.048-0.256-0.072-0.512-0.128-0.768
			c-0.008-0.056-0.016-0.12-0.024-0.176l128.296-56.448c1.16,1.64,2.472,3.144,3.848,4.576c0.304,0.32,0.608,0.64,0.92,0.952
			l-69.16,107.888l-64.96-36.376C78.224,139.56,78.304,138.96,78.464,138.376z M70.12,154.032L134.344,190L54.36,314.776
			c-2.056-0.8-4.152-1.52-6.36-1.968V167.192C56.808,165.4,64.44,160.592,70.12,154.032z M16,128c0-13.232,10.768-24,24-24
			c9.792,0,18.208,5.912,21.936,14.344c0,0.008,0,0.008,0,0.016C63.304,121.456,64,124.696,64,128c0,1.936-0.272,3.864-0.784,5.768
			c-0.032,0.12-0.08,0.232-0.112,0.36c-0.528,1.872-1.272,3.72-2.28,5.528c-0.024,0.04-0.024,0.096-0.048,0.144
			C56.64,147.04,48.928,152,40,152C26.768,152,16,141.232,16,128z M61.936,361.648c0,0.008,0,0.008,0,0.016
			C58.208,370.088,49.792,376,40,376c-13.232,0-24-10.768-24-24s10.768-24,24-24c4.76,0,9.168,1.432,12.904,3.832
			c0.008,0,0.008,0.008,0.016,0.008c1.68,1.08,3.184,2.36,4.52,3.768c0.16,0.176,0.296,0.376,0.456,0.552
			c1.048,1.168,1.952,2.44,2.744,3.776c0.048,0.088,0.096,0.184,0.144,0.272c0.024,0.048,0.024,0.096,0.048,0.144
			c1.016,1.808,1.76,3.656,2.288,5.528c0.032,0.12,0.08,0.232,0.112,0.352C63.728,348.136,64,350.064,64,352
			C64,355.304,63.304,358.544,61.936,361.648z M70.112,325.96c-0.72-0.832-1.384-1.728-2.176-2.504
			c-0.032-0.024-0.048-0.064-0.072-0.088l80.472-125.528l53.736,30.088C200.84,231.76,200,235.768,200,240s0.84,8.24,2.064,12.072
			L70.112,325.96z M211.248,412.336c-1.392,1.432-2.704,2.928-3.864,4.568L79.088,360.456c0.016-0.056,0.016-0.12,0.032-0.176
			c0.056-0.256,0.08-0.512,0.128-0.768C79.72,357.04,80,354.536,80,352c0-2.368-0.28-4.704-0.712-7.016
			c-0.056-0.336-0.032-0.696-0.104-1.024c-0.168-0.808-0.512-1.544-0.72-2.328c-0.168-0.584-0.24-1.176-0.432-1.76l131.808-73.808
			c0.16,0.192,0.352,0.352,0.512,0.536c0.792,0.88,1.576,1.736,2.44,2.544c1.176,1.104,2.424,2.12,3.72,3.072
			c0.792,0.584,1.6,1.12,2.432,1.648c1.52,0.96,3.096,1.832,4.736,2.576c0.648,0.296,1.312,0.536,1.984,0.792
			c1.936,0.76,3.92,1.408,5.968,1.856c0.128,0.024,0.248,0.08,0.376,0.104v121.616c-0.216,0.04-0.408,0.136-0.624,0.184
			c-2.176,0.48-4.296,1.144-6.336,1.976c-0.496,0.2-0.968,0.432-1.456,0.656c-1.888,0.856-3.72,1.824-5.448,2.96
			c-0.192,0.128-0.408,0.232-0.6,0.36c-1.816,1.232-3.48,2.664-5.072,4.192C212.056,411.536,211.648,411.928,211.248,412.336z
			 M240,464c-13.232,0-24-10.768-24-24c0-3.432,0.752-6.68,2.056-9.632c0-0.008,0.008-0.008,0.008-0.016
			c0.024-0.064,0.064-0.12,0.096-0.184c0.488-1.088,1.056-2.136,1.696-3.128c0.32-0.496,0.688-0.944,1.04-1.416
			c0.488-0.648,1-1.288,1.552-1.88c0.384-0.416,0.776-0.824,1.192-1.208c0.688-0.64,1.416-1.232,2.176-1.792
			c0.336-0.248,0.656-0.536,1.008-0.768c1.096-0.72,2.256-1.344,3.464-1.88c0.408-0.184,0.84-0.32,1.256-0.48
			c0.928-0.352,1.88-0.656,2.856-0.888c0.44-0.104,0.872-0.216,1.32-0.296c1.392-0.256,2.816-0.432,4.28-0.432
			s2.888,0.176,4.28,0.432c0.448,0.08,0.88,0.192,1.32,0.296c0.976,0.232,1.928,0.536,2.856,0.888
			c0.416,0.16,0.848,0.296,1.256,0.48c1.208,0.536,2.368,1.16,3.464,1.88c0.352,0.232,0.664,0.512,1.008,0.768
			c0.76,0.56,1.488,1.152,2.176,1.792c0.408,0.384,0.808,0.792,1.192,1.208c0.552,0.6,1.064,1.232,1.56,1.888
			c0.352,0.464,0.72,0.92,1.04,1.408c0.632,0.984,1.192,2.016,1.68,3.088c0.032,0.072,0.08,0.144,0.112,0.216
			c0.008,0.008,0.016,0.016,0.016,0.032c1.296,2.952,2.04,6.2,2.04,9.624C264,453.232,253.232,464,240,464z M401.552,341.632
			c-0.216,0.792-0.56,1.52-0.72,2.328c-0.072,0.336-0.048,0.688-0.104,1.024C400.28,347.296,400,349.632,400,352
			c0,2.536,0.28,5.04,0.76,7.512c0.048,0.256,0.072,0.512,0.128,0.768c0.008,0.056,0.016,0.12,0.024,0.176l-128.296,56.448
			c-1.16-1.64-2.472-3.144-3.848-4.576c-0.4-0.416-0.808-0.808-1.224-1.2c-1.592-1.52-3.264-2.952-5.072-4.192
			c-0.192-0.128-0.4-0.232-0.592-0.36c-1.728-1.136-3.56-2.104-5.456-2.968c-0.488-0.224-0.96-0.448-1.456-0.656
			c-2.048-0.832-4.16-1.488-6.336-1.976c-0.216-0.048-0.408-0.136-0.624-0.184v-121.6c0.128-0.024,0.248-0.08,0.376-0.104
			c2.048-0.448,4.032-1.096,5.968-1.856c0.664-0.256,1.328-0.504,1.984-0.792c1.64-0.744,3.208-1.616,4.736-2.576
			c0.832-0.52,1.64-1.064,2.432-1.648c1.296-0.952,2.544-1.968,3.72-3.072c0.864-0.808,1.648-1.664,2.44-2.544
			c0.168-0.184,0.352-0.344,0.512-0.536l131.808,73.808C401.792,340.448,401.712,341.048,401.552,341.632z M412.072,323.448
			c-0.8,0.784-1.464,1.68-2.192,2.52L277.928,252.08C279.16,248.24,280,244.232,280,240s-0.84-8.24-2.064-12.072l53.736-30.088
			l80.472,125.52C412.112,323.384,412.096,323.424,412.072,323.448z M440,376c-9.792,0-18.208-5.912-21.936-14.344
			c0,0,0-0.008,0-0.016c-1.368-3.096-2.064-6.336-2.064-9.64c0-1.936,0.272-3.864,0.784-5.768c0.032-0.12,0.08-0.24,0.112-0.36
			c0.528-1.872,1.272-3.712,2.288-5.52c0.024-0.04,0.024-0.096,0.048-0.144c0.048-0.088,0.096-0.184,0.144-0.272
			c0.792-1.336,1.696-2.616,2.744-3.784c0.16-0.176,0.288-0.376,0.448-0.544c1.336-1.408,2.84-2.688,4.52-3.768
			c0.008,0,0.008-0.008,0.016-0.008c3.728-2.4,8.136-3.832,12.896-3.832c13.232,0,24,10.768,24,24S453.232,376,440,376z"/>
	</g>
</g>
<g>
</g>
<g>
</g>
<g>
</g>
<g>
</g>
<g>
</g>
<g>
</g>
<g>
</g>
<g>
</g>
<g>
</g>
<g>
</g>
<g>
</g>
<g>
</g>
<g>
</g>
<g>
</g>
<g>
</g>
</svg>
